<?xml version="1.0" encoding="UTF-8"?>
<svg version="1.1" xmlns="http://www.w3.org/2000/svg" width="140" height="140">
<rect x="0" y="0" width="140" height="140" fill="#4358D8" rx="20" ry="20" />
<path d="M0 0 C4.0209494 2.15939875 6.32137114 3.7652772 8 8 C8.69633388 12.90672476 8.49572757 16.90939934 6.4375 21.4375 C3.08410574 24.9628632 -0.07317094 26.81318112 -5.01953125 27.12890625 C-10.4438908 26.78664265 -13.24441717 24.84500146 -17 21 C-19.30584081 17.96048256 -19.41881923 14.80578061 -19.3203125 11.02734375 C-18.6464408 6.76222897 -16.08355978 3.9522192 -12.9375 1.1875 C-8.62844139 -1.45353592 -4.75320576 -1.16808459 0 0 Z M-9.8125 8.125 C-11.55198782 10.87155972 -11.39769128 12.81846974 -11 16 C-10.08333333 18.08333333 -10.08333333 18.08333333 -8 19 C-4.42243314 19.00082535 -4.42243314 19.00082535 -1 18 C1.32038095 15.17431454 1.32038095 15.17431454 0.8125 11.9375 C0.26245502 8.70259047 0.26245502 8.70259047 -3 7 C-5.83079592 6.64615051 -7.36830089 6.6079109 -9.8125 8.125 Z " fill="#FFFFFF" transform="translate(104,99)"/>
<path d="M0 0 C3.95315805 2.08846086 6.63959111 4.21660175 9 8 C9.90157356 12.56377936 10.07086061 17.12353782 7.72265625 21.23828125 C5.11980942 24.31205881 2.98761077 26.78193479 -1.171875 27.23828125 C-6.96640433 27.40509346 -10.55241656 27.1221505 -15 23 C-17.91803293 18.6229506 -18.64048309 15.21536229 -18 10 C-16.52868275 5.96842448 -14.76954961 3.54218268 -11.25 1.0625 C-7.32262194 -0.22145052 -4.08505594 -0.74199619 0 0 Z M-8.875 9.125 C-10.54663625 11.91106042 -10.46376624 13.81988862 -10 17 C-8.42304368 19.0785608 -8.42304368 19.0785608 -6 20 C-3.16632207 19.86177181 -1.51403215 19.32555369 0.875 17.8125 C2.29140605 15.92039564 2.29140605 15.92039564 1.8125 12.9375 C1.23351637 9.90484132 1.23351637 9.90484132 -1 8 C-4.10347254 7.66984335 -6.15781176 7.49468706 -8.875 9.125 Z " fill="#FFFFFF" transform="translate(73,47)"/>
<path d="M0 0 C4.13098667 1.74419437 6.76586028 4.11094196 9 8 C9.676098 12.55990538 9.55987729 16.56920248 7.875 20.875 C4.30832878 24.91722738 1.4674209 26.81366084 -3.9375 27.5 C-8.54220892 27.23536156 -11.30923721 25.74998012 -15 23 C-17.98719005 18.66375637 -18.55794988 15.2075322 -18 10 C-14.94747128 1.35116864 -8.63915637 -1.31187189 0 0 Z M-8.1875 8.125 C-10.2884656 9.93320773 -10.2884656 9.93320773 -10.4375 13 C-10.20737857 15.92733832 -10.20737857 15.92733832 -8.875 17.875 C-6.08893958 19.54663625 -4.18011138 19.46376624 -1 19 C1.0785608 17.42304368 1.0785608 17.42304368 2 15 C1.9203841 11.735748 1.48252097 10.46643694 -0.875 8.1875 C-3.75287502 6.57927572 -5.26509525 6.62204899 -8.1875 8.125 Z " fill="#FFFFFF" transform="translate(103,65)"/>
<path d="M0 0 C3.54006562 2.63769596 4.79985454 4.21206362 6.1875 8.375 C6.747024 13.59722401 6.1099897 16.99126546 3.1875 21.375 C-0.22607866 24.46347593 -2.84955837 25.63931338 -7.375 25.8125 C-12.58290545 25.55035711 -15.2354679 23.73891965 -19.125 20.375 C-21.69763325 15.80142978 -21.69138485 11.49807239 -20.8125 6.375 C-19.19449329 3.13898658 -16.87614526 1.1819033 -14 -1 C-9.00726339 -2.42649617 -4.60684233 -2.3424622 0 0 Z M-11.625 7 C-13.97294872 9.16882755 -13.97294872 9.16882755 -14.4375 11.875 C-13.96401719 14.57412571 -13.96401719 14.57412571 -11.6875 16.8125 C-8.84704494 18.76572944 -8.84704494 18.76572944 -5.5 17.625 C-4.1696875 17.00625 -4.1696875 17.00625 -2.8125 16.375 C-1.61261955 11.09300407 -1.61261955 11.09300407 -3.8125 6.375 C-7.27000593 4.97330841 -8.35729629 5.11199341 -11.625 7 Z " fill="#FFFFFF" transform="translate(48.8125,64.625)"/>
<path d="M0 0 C4.0011912 2.07219586 6.51229786 4.05622045 8.10546875 8.2734375 C8.80796455 13.01528418 8.57887904 16.32661693 6.41796875 20.6484375 C3.50705661 23.95271615 1.44186246 25.96702521 -3.0390625 26.5546875 C-8.89441781 26.78773647 -12.16813445 25.61034905 -16.64453125 21.7734375 C-19.38627198 18.48334862 -19.23145674 14.63001291 -19.171875 10.55859375 C-18.732209 6.93599357 -17.31244766 4.94587142 -14.89453125 2.2734375 C-10.15846733 -0.88393844 -5.49116786 -2.10589118 0 0 Z M-10.89453125 9.2734375 C-12.22786458 11.60677083 -12.22786458 11.60677083 -11.89453125 14.2734375 C-9.56103925 17.10754905 -9.56103925 17.10754905 -6.89453125 19.2734375 C-3.09905204 18.30567652 -3.09905204 18.30567652 0.10546875 16.2734375 C0.60578081 12.85771897 0.60578081 12.85771897 0.10546875 9.2734375 C-4.57005801 5.55699316 -6.16446917 5.84414249 -10.89453125 9.2734375 Z " fill="#FFFFFF" transform="translate(101.89453125,31.7265625)"/>
<path d="M0 0 C3.76266417 1.77871397 5.51796464 3.33137031 7.9375 6.6875 C9.35654771 11.11158992 9.40844403 14.55916828 8 19 C5.59005601 22.86310424 3.36348215 25.54550595 -1 27 C-7.12093081 27.50171564 -10.1167095 27.08833623 -15 23 C-18.29487979 19.70512021 -18.84373757 16.6097416 -19 12 C-17.49792128 7.3356503 -15.76310387 4.15615163 -12 1 C-8.28507853 -0.85746073 -4.05436108 -0.4421807 0 0 Z M-9.25 8.125 C-11.28308178 9.9464041 -11.28308178 9.9464041 -11.4375 13 C-11.20737857 15.92733832 -11.20737857 15.92733832 -9.875 17.875 C-7.11909116 19.52854531 -5.14924548 19.39365568 -2 19 C0.08333333 18.08333333 0.08333333 18.08333333 1 16 C1.00082535 12.42243314 1.00082535 12.42243314 0 9 C-3.48254307 6.67830462 -5.42283713 6.21141857 -9.25 8.125 Z " fill="#FFFFFF" transform="translate(76,81)"/>
<path d="M0 0 C3.13102361 1.33938232 4.11112229 3.46718064 5.859375 6.33984375 C6.77976562 7.82291016 6.77976562 7.82291016 7.71875 9.3359375 C9.109375 11.90234375 9.109375 11.90234375 9.109375 13.90234375 C10.31335938 14.16789062 11.51734375 14.4334375 12.7578125 14.70703125 C14.3334201 15.06341868 15.90893627 15.42021053 17.484375 15.77734375 C18.2784375 15.95136719 19.0725 16.12539063 19.890625 16.3046875 C21.03144531 16.56572266 21.03144531 16.56572266 22.1953125 16.83203125 C22.8970459 16.98913574 23.5987793 17.14624023 24.32177734 17.30810547 C26.109375 17.90234375 26.109375 17.90234375 28.109375 19.90234375 C27.734375 22.52734375 27.734375 22.52734375 27.109375 24.90234375 C23.04651743 26.53364262 19.90835316 25.20203152 15.859375 23.96484375 C14.59609375 23.58457031 13.3328125 23.20429687 12.03125 22.8125 C11.06703125 22.51214844 10.1028125 22.21179688 9.109375 21.90234375 C8.90248047 23.48402344 8.90248047 23.48402344 8.69140625 25.09765625 C8.22976364 28.11537369 7.69667789 30.87183498 6.796875 33.77734375 C6.57386719 34.53789063 6.35085937 35.2984375 6.12109375 36.08203125 C5.109375 37.90234375 5.109375 37.90234375 3.19140625 38.84765625 C1.109375 38.90234375 1.109375 38.90234375 -0.57250977 37.6574707 C-1.890625 35.90234375 -1.890625 35.90234375 -1.75292969 34.00805664 C-1.52508789 33.30414795 -1.29724609 32.60023926 -1.0625 31.875 C-0.72279175 30.69466187 -0.72279175 30.69466187 -0.3762207 29.49047852 C-0.13347412 28.65701904 0.10927246 27.82355957 0.359375 26.96484375 C2.2740946 19.98324465 2.2740946 19.98324465 0.79296875 13.12109375 C-1.12728966 9.9713766 -1.12728966 9.9713766 -3.31640625 7.25 C-4.890625 4.90234375 -4.890625 4.90234375 -4.74609375 2.6484375 C-3.58046419 0.2692758 -2.62179416 -0.13542325 0 0 Z " fill="#FFFFFF" transform="translate(44.890625,14.09765625)"/>
</svg>
